<?xml version="1.0" encoding="UTF-8"?>
<!DOCTYPE svg PUBLIC "-//W3C//DTD SVG 1.1//EN" "http://www.w3.org/Graphics/SVG/1.1/DTD/svg11.dtd">
<!-- Creator: CorelDRAW -->
<svg xmlns="http://www.w3.org/2000/svg" xml:space="preserve" width="94.2169mm" height="174.21mm" version="1.1" style="shape-rendering:geometricPrecision; text-rendering:geometricPrecision; image-rendering:optimizeQuality; fill-rule:evenodd; clip-rule:evenodd"
viewBox="0 0 386.04 713.8"
 xmlns:xlink="http://www.w3.org/1999/xlink"
 xmlns:xodm="http://www.corel.com/coreldraw/odm/2003">
 <defs>
  <style type="text/css">
   <![CDATA[
    .fil0 {fill:#B3B3B3}
   ]]>
  </style>
 </defs>
 <g id="Camada_x0020_1">
  <metadata id="CorelCorpID_0Corel-Layer"/>
  <path class="fil0" d="M108.04 256.07c-125.5,11.16 -106.56,-42.97 -107.54,118.44 -0.1,16.18 0.04,27.11 16.77,28.42 28.59,2.24 62,-2.4 90.73,0.58 0.82,93.98 -1.77,195.38 -0.05,287.36 0.55,29.52 19.2,22.13 74.04,22.13 93.88,0 76.18,17.91 76.18,-115.8 0,-64.47 -0.52,-129.15 0.05,-193.6 83.02,-9.79 122.89,18.43 123.13,-24.55l0.03 -98.16c-0.11,-42.99 -32.9,-15.85 -123.2,-24.86 -0.04,-26.34 -5.29,-86.6 8.38,-104.3 15.9,-20.6 70.48,-11.47 100.4,-13.1 23.12,-1.26 18.78,-16.84 18.72,-38.05 -0.06,-19.3 -0.02,-38.61 -0,-57.9 0.05,-50.07 5.01,-42.13 -74.52,-42.27 -83.34,-0.14 -132.34,12.8 -168.03,61.35 -42.43,57.72 -34.83,113.24 -35.08,194.33zm236.45 110.74l0.02 -74.08c-6.29,0.4 -12.76,1.04 -16.7,1.25 -24.66,1.36 -48.67,1.18 -73.28,-1.28 -18.91,-1.89 -33.19,-17.63 -33.22,-36.64 -0.06,-36.91 -7.15,-96.82 16.07,-126.89 25.91,-33.55 72.62,-27.65 111.45,-27.14 -0.01,-0.47 -0.02,-0.93 -0.02,-1.37 -0.06,-19.35 -0.02,-38.7 -0,-58.04 0,-1.68 0.05,-3.63 0.11,-5.71 -12.61,0.12 -25.2,0.38 -37.82,0.35 -28.61,-0.05 -62.59,1.09 -89.88,10.43 -20.65,7.07 -35.43,18.27 -48.38,35.89 -16.19,22.03 -23.46,43.76 -26.42,70.59 -3.62,32.93 -1.4,68.75 -1.5,102.01 -0.06,19.12 -14.56,34.92 -33.61,36.62 -21.51,1.91 -42.7,2.29 -64.26,1.21 -2.83,-0.14 -6.48,-0.47 -10.28,-0.78 0.01,4.23 0.12,8.27 0.14,11.02 0.16,20.88 0.52,41.7 0.5,62.57 24.6,0.13 49.35,-2.61 74.4,-0.01 18.76,1.94 32.91,17.5 33.07,36.36 0.8,91.21 -1.6,182.47 -0.28,273.68 0.26,-0.01 0.51,-0.01 0.75,-0.02 12.23,-0.28 24.4,-0.73 36.64,-0.73 12.9,0 25.74,0.43 38.63,0.71 0.64,0.01 1.37,0.03 2.14,0.06 -0.03,-4.81 -0.23,-9.61 -0.3,-12.63 -0.49,-22.38 -1.16,-44.66 -1.16,-67.06 0,-64.64 -0.52,-129.28 0.06,-193.92 0.16,-18.68 14.01,-34.11 32.56,-36.3 24.34,-2.87 47.96,-2.98 72.37,-1.53 4.1,0.24 11.36,0.98 18.21,1.38z"/>
 </g>
</svg>
