<?xml version="1.0" encoding="UTF-8"?>
<!DOCTYPE svg PUBLIC "-//W3C//DTD SVG 1.1//EN" "http://www.w3.org/Graphics/SVG/1.1/DTD/svg11.dtd">
<!-- Creator: CorelDRAW -->
<svg xmlns="http://www.w3.org/2000/svg" xml:space="preserve" width="169.956mm" height="169.946mm" version="1.1" style="shape-rendering:geometricPrecision; text-rendering:geometricPrecision; image-rendering:optimizeQuality; fill-rule:evenodd; clip-rule:evenodd"
viewBox="0 0 1699.38 1699.28"
 xmlns:xlink="http://www.w3.org/1999/xlink"
 xmlns:xodm="http://www.corel.com/coreldraw/odm/2003">
 <defs>
  <style type="text/css">
   <![CDATA[
    .fil0 {fill:#B3B3B3}
   ]]>
  </style>
 </defs>
 <g id="Camada_x0020_1">
  <metadata id="CorelCorpID_0Corel-Layer"/>
  <path class="fil0" d="M1696.18 1253.65c5.67,-70.46 1.69,-142.84 1.69,-213.57 0,-45.99 0.49,-92 0.79,-137.99 0.43,-65.5 0.76,-131 0.71,-196.51 -0.05,-63.16 -0.33,-126.4 -1.86,-189.55 -0.57,-23.8 -1.3,-47.65 -2.65,-71.42 -0.8,-14.16 -1.6,-29.64 -4,-43.62 -16.85,-98.41 -70.4,-203.33 -145.23,-270.43 -164.42,-147.43 -300.13,-129.1 -505.43,-129.1 -45.96,0 -91.96,-0.48 -137.92,-0.78 -65.53,-0.42 -131.06,-0.75 -196.59,-0.69 -63.18,0.05 -126.45,0.33 -189.61,1.84 -23.79,0.57 -47.64,1.29 -71.4,2.62 -14.13,0.79 -29.58,1.58 -43.54,3.95 -215.49,36.59 -379.94,215.66 -397.92,434.21 -5.88,71.44 -1.65,144.8 -1.65,216.51 0,45.95 -0.51,91.93 -0.82,137.88 -0.44,65.63 -0.79,131.27 -0.75,196.9 0.04,63.26 0.31,126.62 1.85,189.87 0.58,23.78 1.31,47.62 2.68,71.37 0.8,14.01 1.61,29.45 4.04,43.27 37.93,215.1 214.9,380.4 434.12,397.7 71.56,5.65 144.76,1.62 216.55,1.62 45.89,0 91.82,0.5 137.72,0.81 65.74,0.44 131.48,0.79 197.22,0.74 63.36,-0.04 126.8,-0.32 190.14,-1.85 23.76,-0.58 47.58,-1.31 71.32,-2.67 13.89,-0.8 29.28,-1.58 42.97,-4.02 219.23,-39.03 379.67,-214.93 397.56,-437.08zm-1278.75 -1122.33c14.52,-2.64 32.27,-3.03 47.05,-3.63 26.91,-1.1 53.88,-1.62 80.81,-2.03 73.95,-1.13 147.96,-1.23 221.92,-1.17 74.86,0.06 149.72,0.42 224.57,0.87 44.35,0.27 88.75,0.76 133.1,0.76 30.56,0 61.21,-0.38 91.76,0.34 24.85,0.59 49.82,1.99 74.37,6.11 53.05,8.89 95.52,29.99 139.64,60.42 76.87,53.03 128.26,139.34 142.76,231.14 2.26,14.3 2.46,31.38 2.94,45.89 0.9,26.86 1.31,53.77 1.64,80.65 0.91,74.32 0.98,148.69 0.91,223.01 -0.07,75.25 -0.37,150.51 -0.75,225.76 -0.22,44.11 -0.64,88.25 -0.64,132.35 0,53.99 0.98,110.58 -7.45,163.97 -8.18,51.86 -25.26,97.16 -58.23,138.6 -61.7,77.54 -129.76,127.15 -229.83,142.84 -14.65,2.3 -31.84,2.57 -46.69,3.09 -26.91,0.95 -53.87,1.39 -80.8,1.75 -74,0.98 -148.05,1.06 -222.06,1.01 -74.91,-0.05 -149.82,-0.36 -224.72,-0.74 -44.36,-0.23 -88.75,-0.66 -133.1,-0.66 -54.26,0 -111.5,1.08 -165.13,-7.56 -52.65,-8.48 -97.37,-26.33 -140.66,-58.1 -75.07,-55.1 -127.43,-138.59 -142.42,-230.68 -2.35,-14.41 -2.6,-31.64 -3.11,-46.27 -0.95,-26.87 -1.39,-53.8 -1.74,-80.69 -0.98,-74.16 -1.06,-148.36 -1,-222.53 0.06,-75.08 0.36,-150.16 0.76,-225.24 0.23,-44.19 0.66,-88.41 0.66,-132.6 0,-29.73 -0.34,-59.53 0.36,-89.25 0.59,-24.75 1.97,-49.6 5.88,-74.07 8.38,-52.45 27.89,-95.02 57.64,-138.97 53.68,-79.31 138.35,-127.4 231.59,-144.38zm378.47 295.71c-113.61,14.85 -216.3,73.88 -286.79,164.12 -69.35,88.78 -101.91,202.23 -86.88,314.26 14.75,109.96 69.85,212.01 155.49,282.75 43.1,35.61 92.65,62.16 146.21,78.18 58.47,17.5 119.43,21.8 179.97,14.82 108.82,-12.55 209.39,-70.21 278.84,-154.43 35.71,-43.31 62.79,-93.13 79.25,-146.82 17.63,-57.5 22.48,-117.47 15.34,-177.15 -13.3,-111.23 -66.43,-207.4 -152.34,-278.82 -41.97,-34.89 -89.92,-62.35 -141.75,-79.63 -60.75,-20.26 -123.9,-25.58 -187.34,-17.29zm2.24 119.99c86.09,-15.27 170.97,5.17 240.06,58.81 61.53,47.77 105.72,118.87 118.77,195.89 14.56,85.94 -4.59,170.95 -57.76,240.39 -47.22,61.68 -117.5,105.2 -194.14,118.61 -86.4,15.12 -171.84,-3.48 -241.93,-56.75 -61.8,-46.97 -105.66,-117.05 -119.9,-193.44 -32.32,-173.31 82.45,-332.9 254.9,-363.5zm500.03 -243.61c-23.78,5.27 -44.31,17.66 -56.5,39.2 -10.58,18.69 -13.05,41.25 -8.68,62.12 4.34,20.72 15.52,40.2 32.81,52.73 20.35,14.75 44.9,16.95 68.97,11.76 20.15,-4.34 38.47,-17.61 50.28,-34.32 13.58,-19.2 18.32,-42.19 13.5,-65.22 -4.42,-21.14 -16.95,-40.66 -34.46,-53.33 -19.43,-14.06 -42.64,-18.09 -65.93,-12.94z"/>
 </g>
</svg>
