<?xml version="1.0" encoding="UTF-8"?>
<!DOCTYPE svg PUBLIC "-//W3C//DTD SVG 1.1//EN" "http://www.w3.org/Graphics/SVG/1.1/DTD/svg11.dtd">
<!-- Creator: CorelDRAW -->
<svg xmlns="http://www.w3.org/2000/svg" xml:space="preserve" width="90.0051mm" height="95.4417mm" version="1.1" style="shape-rendering:geometricPrecision; text-rendering:geometricPrecision; image-rendering:optimizeQuality; fill-rule:evenodd; clip-rule:evenodd"
viewBox="0 0 635.42 673.8"
 xmlns:xlink="http://www.w3.org/1999/xlink"
 xmlns:xodm="http://www.corel.com/coreldraw/odm/2003">
 <defs>
  <style type="text/css">
   <![CDATA[
    .fil0 {fill:white}
   ]]>
  </style>
 </defs>
 <g id="Camada_x0020_1">
  <metadata id="CorelCorpID_0Corel-Layer"/>
  <g id="_1515515848336">
   <path class="fil0" d="M247.56 120.03c-253.96,34.72 -328.22,333.92 -148.92,487.51 80.86,69.26 205.29,91.75 314.72,30.89 67.27,-37.42 116.17,-100.83 134.58,-176.72 5.05,-20.82 13.83,-74.23 4.56,-93.89 -5.34,-11.31 -23.43,-14.74 -32.52,-3.86 -13.47,16.13 23.34,151.36 -126.11,240.01 -44.7,26.52 -111.05,37.01 -171,23.48 -59.68,-13.47 -99.22,-47.3 -128.43,-80.47 -88.7,-100.72 -65.04,-277.7 56.47,-352.82 21.78,-13.46 45.23,-24.19 74.01,-30.68 53.27,-12.01 80.24,4.1 88.97,-15.75 6.47,-14.71 -5.4,-26.43 -17.89,-28.86 -15.65,-3.05 -33.53,-0.89 -48.46,1.15z"/>
   <path class="fil0" d="M488.91 235.01l-52.11 1.96c-2.16,-20.51 -0.72,-32.71 0.98,-50.37 0.1,-0.99 0.67,-1.14 1.01,-1.7l76.83 -76.74c2.33,52.74 -2.95,47.76 50.77,50.81l-77.48 76.04zm129.54 -116.81l-62.81 -0.52 -0.08 -62.42c-13.25,-44.95 -59.79,16.25 -90.61,46.98 -14.72,14.67 -27.6,27.63 -42.35,42.33 -22.29,22.22 -25.62,16.86 -25.57,60.76 0.07,57.48 7.45,36.51 -64.37,108.32 -15.08,15.08 -28.43,28.43 -43.58,43.59 -17.95,17.95 -43.04,35.3 -25.45,52.88 11.1,11.09 22.93,4.9 30.64,-2.88l106.97 -107.19c26.83,-26.83 14.38,-23.41 64.68,-23.38 43.77,0.03 38.21,-0.34 60.81,-22.98l87.17 -87.17c10.09,-10.08 40.23,-37.89 4.54,-48.32z"/>
   <path class="fil0" d="M252.05 239.45c-105.02,20.89 -151.84,117.46 -126.22,201.5 26.67,87.46 124.41,139.61 215.4,100.45 46.53,-20.02 89.89,-65.76 95.05,-131.8 1.53,-19.5 -0.99,-35.74 -22.54,-33.03 -32.93,4.14 3.47,59.63 -61.03,111.59 -51.64,41.59 -125.27,31.4 -162.53,-12.11 -68.09,-79.5 -18.05,-190.8 79.01,-198.73 17.55,-1.43 34.23,-6.71 26.87,-28.81 -5.03,-15.09 -27.18,-12.42 -44.02,-9.07z"/>
   <path class="fil0" d="M618.45 118.2c-9.44,-4.99 -48.95,-2.48 -60.37,-2.48l-2.52 -60.46 0.08 62.42 62.81 0.52z"/>
   <path class="fil0" d="M488.91 235.01l-49.6 -0.49 -0.52 -49.63c-0.34,0.56 -0.92,0.71 -1.01,1.7 -1.7,17.66 -3.14,29.86 -0.98,50.37l52.11 -1.96z"/>
   <path class="fil0" d="M246.73 0c0,0 0,0 0,0z"/>
  </g>
 </g>
</svg>
