<?xml version="1.0" encoding="UTF-8"?>
<!DOCTYPE svg PUBLIC "-//W3C//DTD SVG 1.1//EN" "http://www.w3.org/Graphics/SVG/1.1/DTD/svg11.dtd">
<!-- Creator: CorelDRAW -->
<svg xmlns="http://www.w3.org/2000/svg" xml:space="preserve" width="105.74mm" height="105.701mm" version="1.1" style="shape-rendering:geometricPrecision; text-rendering:geometricPrecision; image-rendering:optimizeQuality; fill-rule:evenodd; clip-rule:evenodd"
viewBox="0 0 704.98 704.72"
 xmlns:xlink="http://www.w3.org/1999/xlink"
 xmlns:xodm="http://www.corel.com/coreldraw/odm/2003">
 <defs>
  <style type="text/css">
   <![CDATA[
    .fil0 {fill:white}
   ]]>
  </style>
 </defs>
 <g id="Camada_x0020_1">
  <metadata id="CorelCorpID_0Corel-Layer"/>
  <g id="_1515443718128">
   <path class="fil0" d="M529 573.66c-4.25,-35.97 14.53,-76.19 43.49,-83.06 7.67,-1.82 15.44,2.49 24.48,2.84 14.59,0.56 37.9,-16.47 62.76,26.85 10.57,18.41 28.41,79.02 -27.46,79.31 -48.17,0.25 -99.15,9.04 -103.28,-25.94zm-493.92 0c-2.44,-20.76 1.01,-38.17 9.74,-53.38 24.12,-42.05 47.33,-27.28 58.24,-26.88 14.33,0.53 37.96,-16.47 62.76,26.89 10.62,18.57 28.37,79.02 -27.46,79.31 -48.4,0.25 -99.17,9.05 -103.28,-25.94zm211.39 21.17c-1.93,5.04 -21.29,15.67 -6.94,25.74 9.39,6.58 91.53,-18.8 104.51,-22.16 26.86,-6.95 88.74,-28.29 104.39,-17.44 8.1,5.62 13,19.33 6.6,31.89 -7.67,15.03 -42.5,19.01 -62.55,24.52 -23.4,6.44 -47,12.57 -70.43,18.91 -22.72,6.15 -45.95,12.14 -68.71,18.53 -65.6,18.41 -53.89,2.43 -53.89,-117.62 0,-68.4 35.12,-119.7 90.6,-144.7 22.05,-9.94 40.13,24.45 94.3,5.07 11.55,-4.13 15.82,-11.01 28.5,-5.78 58.48,24.09 92.34,80.97 92.34,145.41l0 96.43c0,30.5 -17.58,31.33 -43.04,24.22 -19.19,-5.36 -43.96,-10.78 -60.75,-16.87 10.43,-7.35 29.42,-9.13 43.62,-13.5 37.28,-11.47 44.08,-46.8 29.74,-71.66 -6.02,-10.44 -8.78,-8.89 -13.43,-14.64 -8.2,-10.14 0.88,-16.48 -11.12,-19.6 -13.21,-3.44 -12.94,6.15 -17.22,9.35l-69.01 17.99c-30.82,7.99 -63.16,17.49 -93.92,23.94 -0.2,-29.12 5.23,-51.83 -11.83,-51.82 -17.11,0.02 -11.71,23.79 -11.74,53.77zm343.73 -193.5c43.12,-13.2 62.84,54.02 19.17,67.17 -44.87,13.51 -64.97,-53.15 -19.17,-67.17zm-493.92 0c42.82,-13.04 63.4,54.68 19.13,67.15 -43.85,12.36 -65.47,-53.04 -19.13,-67.15zm242.61 -141.04c94,-17.28 115.06,120.19 28.36,137.66 -93.73,18.89 -119.36,-120.93 -28.36,-137.66zm-8.25 -105.45c17.48,-2.74 25.87,-2.62 43.3,0 13.84,35.09 49.09,50.35 78.76,41.6 14.86,-4.38 15.34,-0.26 23.96,8.23 27.93,27.53 -4.72,19.54 11.19,64.03 13.1,36.62 29.3,33.02 40.26,43.89 -1.87,54.26 0.39,25.68 -22.76,47.21 -32.85,30.57 -16.98,75.69 -17.04,79.08 -11.24,-12.21 -14.45,-16.21 -28.97,-26.41l-34.63 -22.28c7.26,-17.08 16.78,-19.7 20.61,-47.79 14.18,-104.06 -126.77,-151.53 -177.19,-55.19 -26.82,51.26 5.46,88.27 11.77,102.98l-34.65 22.25c-14.63,10.26 -17.66,14.18 -28.96,26.43 -0.22,-11.62 5.28,-14.82 4.65,-29.86 -0.43,-10.3 -3.57,-19.59 -7.65,-27.96 -3.53,-7.24 -9.7,-17.21 -14.04,-21.26 -7,-6.54 -16.11,-8.22 -22.76,-14.29l1.12 -32.93c3.21,-8.34 26.21,-5.2 39.73,-45.64 14.2,-42.48 -16.82,-35.25 10.61,-62.27 25.18,-24.81 17.61,5.04 60.74,-9.79 24.07,-8.27 33.55,-18.28 41.97,-40.05zm189.36 224.37c16.22,-18.44 33.08,-2.13 32.16,-52.57 -0.86,-47.05 -18.39,-30.23 -33.22,-49.04 -25.25,-32.04 0.34,-43.59 -7.82,-67.31 -3.89,-11.31 -30.11,-36.91 -42.67,-39.63 -15.38,-3.34 -19.27,6.1 -36.22,4.07 -36.6,-4.4 -32.41,-31.52 -46.04,-39.5 -8.16,-4.78 -21.98,-6.08 -33.91,-6.08 -50.74,0 -33.89,14.76 -51.94,32.7 -4.77,4.74 -20.55,12.52 -30.34,13.12 -15.13,0.92 -19.28,-7.52 -33.91,-4.33 -12.27,2.68 -40.01,29.34 -43.25,41.52 -6.16,23.14 17.6,33.92 -7.22,65.44 -14.95,18.98 -33.22,1.77 -33.25,51.46 -0.03,48.18 16.5,32.19 32.2,50.15 26.15,29.9 2.09,44.43 8.36,66.7 8.75,31.09 15.62,-13.13 -9.35,55.08 -6.87,-5.25 -7.7,-9.86 -15.34,-16.03 -4.63,-3.74 -12.54,-8.04 -16.96,-12.43 29.99,-45.12 0.24,-96.3 -45.96,-96.31 -51,-0 -73.28,57.24 -45.95,96.31 -11.61,13.67 -30.61,18.48 -42.25,50.61 -8.63,23.83 -9.31,58.67 4.14,78.12 14.9,21.55 38.04,21.81 72.3,21.8 25.88,-0.01 63.07,4.75 81.25,-8.33 4.4,22.52 -3.66,49 6.84,68.38 29.08,53.72 122.66,-9.72 170.62,-9.81 47.85,-0.09 141.41,63.69 170.65,9.81 10.54,-19.42 2.22,-45.84 6.9,-68.31 18.05,13.61 57.58,8.26 83.55,8.27 33.49,0.02 55.49,-0.91 69.93,-21.81 13.45,-19.47 12.79,-54.22 4.14,-78.09 -9.78,-26.98 -25.02,-35.37 -42.08,-50.63 9.76,-22.36 20.84,-37.15 5.5,-65.68 -8.6,-15.99 -27.72,-31.46 -53.88,-30.58 -49.49,1.66 -70.11,57.73 -43.64,96.26l-32.41 28.46c-27.01,-72.96 -16.01,-23.83 -8.88,-57.14 4.7,-21.93 -17.57,-35.61 7.96,-64.64z"/>
   <path class="fil0" d="M328.93 49.16c-2.42,-33.04 44.61,-34.56 46.66,-4.43 2.22,32.68 -44.49,33.97 -46.66,4.43zm13.78 -48.02c-61.55,13.7 -40.26,104.84 20.04,91.42 21.8,-4.85 41.56,-28.22 35.34,-56.25 -4.9,-22.08 -28.06,-41.25 -55.38,-35.17z"/>
   <path class="fil0" d="M40.61 165.25c33.34,-7.66 39.74,39.44 11.97,45.24 -33.57,7.01 -40.19,-38.76 -11.97,-45.24zm-3.71 -23.01c-61.54,13.76 -40.07,104.81 20.06,91.41 21.8,-4.86 41.56,-28.2 35.37,-56.23 -4.88,-22.07 -28.1,-41.29 -55.43,-35.18z"/>
   <path class="fil0" d="M652.13 165.25c33.13,-7.61 39.9,39.16 11.93,45.23 -33.31,7.23 -40.36,-38.7 -11.93,-45.23zm-3.71 -23.01c-61.59,13.77 -40.08,104.81 20.06,91.41 21.76,-4.85 41.53,-28.2 35.35,-56.21 -4.87,-22.08 -28.05,-41.32 -55.41,-35.2z"/>
   <path class="fil0" d="M593.19 163c6.6,-22.26 -14.33,-24.84 -32.5,-32.96l-93.39 -43.05c-9.24,-4.3 -40.87,-23.19 -49.43,-14.53 -15.79,15.97 23.27,28.12 31.92,32.11 16.15,7.44 29.7,14.04 46.4,21.72 15.96,7.33 31.24,14.05 46.93,21.37 13.78,6.42 34.34,20.77 50.06,15.35z"/>
   <path class="fil0" d="M111.38 163.01c15.7,5.41 36.31,-8.95 50.06,-15.37l93.43 -43c16.04,-7.39 38.96,-10.53 32.61,-32.94 -16.17,-5.35 -36.14,8.74 -50.21,15.29l-93.38 43.05c-18.14,8.3 -39.22,10.54 -32.51,32.97z"/>
   <path class="fil0" d="M72.08 331.66c2.38,9.28 3.87,22.1 13.14,24.29 28.26,6.67 3.41,-53.19 -2.2,-75.23 -2.41,-9.47 -3.14,-22.66 -11.95,-25.81 -11.56,-4.13 -16.56,6.66 -14.56,17.69 3.12,17.22 10.97,41.09 15.57,59.06z"/>
   <path class="fil0" d="M646.78 277.3c2.73,-10.09 3.22,-23.49 -9.82,-23.05 -11.12,0.37 -12,12.8 -14.48,22.75 -4.79,19.24 -10.16,38.49 -15.33,57.86 -6.02,22.58 15.21,35.91 24.37,0.6 5.15,-19.84 9.96,-38.56 15.26,-58.15z"/>
   <path class="fil0" d="M391.02 503.71c22.62,2.99 29.28,2.46 51.92,0.21 3.94,-9.92 3.92,-10.54 0.03,-20.3l-36.59 -1.69c-19.17,0 -21.74,6.35 -15.36,21.78z"/>
  </g>
 </g>
</svg>
