<?xml version="1.0" encoding="UTF-8"?>
<!DOCTYPE svg PUBLIC "-//W3C//DTD SVG 1.1//EN" "http://www.w3.org/Graphics/SVG/1.1/DTD/svg11.dtd">
<!-- Creator: CorelDRAW -->
<svg xmlns="http://www.w3.org/2000/svg" xml:space="preserve" width="90.8824mm" height="102.585mm" version="1.1" style="shape-rendering:geometricPrecision; text-rendering:geometricPrecision; image-rendering:optimizeQuality; fill-rule:evenodd; clip-rule:evenodd"
viewBox="0 0 434.12 490.02"
 xmlns:xlink="http://www.w3.org/1999/xlink"
 xmlns:xodm="http://www.corel.com/coreldraw/odm/2003">
 <defs>
  <style type="text/css">
   <![CDATA[
    .fil0 {fill:white}
   ]]>
  </style>
 </defs>
 <g id="Camada_x0020_1">
  <metadata id="CorelCorpID_0Corel-Layer"/>
  <g id="_1515285953056">
   <path class="fil0" d="M270.89 436.86c1.9,-2.33 -1.82,-1.13 5.07,-1.91 1.18,-0.13 5.34,0.03 6.8,0.04 20.9,0.22 90.39,-1.31 100.36,0.89l0.65 29.68c-0.02,0.89 -0.09,4.17 -0.25,4.89 -0.7,3.34 -0.54,1.88 -1.73,3.76l-110.87 0.17 -0.04 -37.53zm92.02 -160.12c0.37,-14.03 1.12,-28.09 1.47,-42.15 0.38,-15.15 -0.67,-27.44 16.89,-22.38 3.04,10.69 -1.04,53.59 -2.14,67.75l-16.22 -3.22zm-72.71 144.13c-1.81,-8.41 -1.17,-34.92 -0.84,-44.79 0.94,-27.89 15.57,-32.78 26.49,-42.7l37.81 -32.99c17.22,-15.1 26.4,-3.16 26.86,5.07 0.69,12.28 -13.43,18.56 -21.09,26.01l-38.22 32.66c-5.44,4.17 -8.65,7.51 -4.09,14.73 9.02,5.81 17.59,-6.43 23.75,-11.97 6.86,-6.18 15.51,-12.73 21.73,-18.78 12.55,-12.22 36.18,-21.9 31.9,-48.42 -2.64,-16.35 1.47,-58.25 2.63,-76.82 0.73,-11.68 -2.12,-29.07 10.52,-30.41 15.38,-1.63 11.62,17.68 11.14,29.84 -3.1,79.58 3.27,136.77 -54.25,191.8 -10.27,9.82 -14.39,6.79 -32.9,6.79 -13.81,-0 -27.64,0.07 -41.44,-0.03zm102.19 0.87l-13.53 -0.23c2.59,-3.56 2.95,-3.39 5.21,-6.41 1.3,-1.74 1.54,-2.58 2.71,-4.08 2.2,-2.82 1.3,-1.77 3.57,-3.56 13.86,-17.67 24.15,-33.01 31.71,-55.55 8.63,-25.76 15.17,-144.05 10.54,-157.6 -8.21,-24.02 -41.86,-22.04 -48.53,3.13 -50.87,-13.87 -29.24,63.81 -36.61,86.92l-44.15 39.88c-44.29,34.22 -22.05,62.06 -29.43,96.69 -21.88,0.25 -18.15,3.46 -18.07,24.31 0.21,54.01 -12.86,44.05 70.79,44.05 15.5,0 58.13,1.9 69.31,-1.63 3.34,-8.42 1.93,-24.81 1.94,-35.67 0,-9.95 3.08,-28.17 -5.45,-30.25z"/>
   <path class="fil0" d="M163.19 436.86l-0.04 37.47 -110.96 -0.05c-1.01,-1.68 -1.13,-0.54 -1.68,-3.8l0.44 -34.63c1.47,-0.3 106.24,-3.8 112.23,1.02zm-108.15 -156.67c-1.01,-12.38 -1.68,-24.76 -2.19,-37.21 -0.74,-18.03 -4.72,-31.72 5.82,-32.25 13.34,-0.66 10.87,16.1 11.18,27.24 0.35,12.93 1.03,25.86 1.49,39.42l-16.28 2.79zm-22.37 -86.68c5.55,10.02 7.34,75.4 7.83,95.07 0.45,18.14 -9.84,26.59 17.18,48.05 3.57,2.83 6.27,4.5 9.58,7.39 3.92,3.42 5.78,5.75 9.67,8.84 18.37,14.58 26.65,29.35 40.03,27.31 5.6,-13.51 -6.17,-16.87 -28.1,-35.94 -4.53,-3.94 -7.94,-7.34 -12.13,-11.46 -5.2,-5.11 -21.62,-15.2 -23.03,-24.35 -1.43,-9.29 8.01,-23.68 25.76,-8.74l50.14 42.65c8.05,6.63 14.27,16.85 15.09,32.08 0.51,9.39 0.95,38.44 -0.77,46.45 -15.5,0.11 -31,-0 -46.5,0.03 -22.53,0.04 -22.48,-0.17 -33.72,-12.68 -53.23,-59.2 -45.51,-105.56 -48.48,-187.19 -0.66,-18.21 -4.17,-32.09 17.47,-27.52zm11.1 213.93c4.46,3.47 2.23,1.97 5.6,6.64 2.39,3.32 3.08,3.5 5.9,7.36l-13.59 0.28c-6.54,2.37 -5.51,3.96 -5.53,13.3 -0.03,12.36 -1.14,44.64 2.03,52.66 10.9,3.4 55.6,1.61 71.03,1.61 81.71,0 68.87,9.79 69.08,-44.05 0.08,-20.77 3.76,-24.07 -18.05,-24.31 -5.62,-26.35 6.38,-50.11 -8.87,-75.14 -11.52,-18.9 -62.14,-53.5 -64.68,-61.47 -3.77,-11.81 1.7,-64.71 -6.77,-77.68 -5.7,-8.72 -15.92,-12.9 -29.88,-9.18 -6.88,-25.47 -41.43,-27.16 -48.92,-1.93 -3.01,10.14 0.94,66.49 1.51,81.14 1,25.6 2.02,53.7 9.86,76.52 3.85,11.19 8.17,20.02 13.99,29.84 6.26,10.58 10.68,15.87 17.29,24.41z"/>
   <path class="fil0" d="M263.27 289.59c-44.61,18.92 -48.25,18.53 -92.42,-0.01 0.87,-14.82 6.86,-25.82 14.42,-32.85 15.11,-14.06 12.58,-3.25 31.79,-3.25 18.56,-0.01 17.87,-10.16 32.13,2.94 7.36,6.76 13.34,18.47 14.09,33.17zm-54.7 -97.55c31.27,-12.4 45.12,34.91 17.68,45.01 -30.36,11.18 -48.36,-32.85 -17.68,-45.01zm-23.46 46.86c-9.27,6.11 -10.85,5.75 -17.16,15.73 -3.94,6.24 -7.85,16.88 -11.2,21.72 -19.53,-26.38 -29.75,-55.09 -13.07,-89.81 29.96,-62.34 116.44,-61.67 146.16,-1.1 17.74,36.15 6.06,67.45 -12.6,90.79 -11.72,-22.37 -8.93,-24.08 -28.21,-37.59 5.61,-14.89 11.91,-25.24 2.18,-43.2 -14.57,-26.9 -53.75,-26.9 -68.33,-0.02 -10.47,19.31 -2.38,27.72 2.23,43.49zm-63.84 -9.34c4.84,50.73 47.33,92.68 104.27,87.82 48.89,-4.17 92.56,-48.01 87.24,-102.85 -4.91,-50.6 -46.95,-93.7 -104.22,-88.22 -49.54,4.74 -92.55,48.13 -87.29,103.25z"/>
   <path class="fil0" d="M95.92 64.6c3.42,-2.43 4.79,-7.61 9.92,-12.78l2.01 1.79c0.25,0.26 0.66,0.64 0.92,0.93 0.26,0.28 0.59,0.66 0.84,0.97 4.22,5.14 2.51,6.49 7.44,9.49 4.31,2.62 10.42,1.93 15.63,6.6 -9.52,8.93 -10.03,13.36 -9.87,30.07 -25.04,-5.62 -9.14,-4.69 -33.57,-0.2 0.27,-26.41 -0.53,-15.21 -10.05,-31.65 4.96,-1.13 13.43,-2.88 16.73,-5.22zm-17.84 54.53c11.52,1.95 19.76,-7.37 29.05,-6.64 10.7,0.84 16.85,10.38 28.81,5.56 3.84,-10.52 -1.35,-23.8 3.4,-31.85 3.84,-6.5 13.83,-13.22 13.05,-23.03 -7.29,-8.31 -17.32,-5.34 -25.89,-11 -6.42,-4.24 -11.89,-16.82 -16.3,-21.78l-8.49 -0.02c-3.42,4.49 -11.07,18.09 -15.42,21.29 -6.89,5.07 -23.73,4.45 -26.61,12.11 -2.63,6.99 9.88,17.29 12.89,22.22 6.44,10.53 -3.47,21.59 5.5,33.15z"/>
   <path class="fil0" d="M190.9 40.82c4.99,-3.64 10.7,-2.51 15.98,-6.82 3.52,-2.87 6.3,-8.55 10.17,-12.22 4.06,3.79 7.17,10.24 11.15,12.94 4.71,3.2 10.6,2.91 14.98,6.1 -8.85,14.13 -9.79,7.74 -9.39,30.96 -24.6,-5.42 -9.21,-5.06 -33.49,0.03 0.41,-22.72 -0.63,-17.14 -9.4,-30.99zm-2.26 47.22c8.57,5.22 18.83,-5.16 28.41,-5.18 9.54,-0.02 19.85,10.45 28.39,5.16 8.45,-8.1 -0.84,-21.61 5.07,-32.24 4.21,-7.57 13.63,-12.22 12.79,-22.55 -4.63,-10.33 -18.78,1.29 -34.98,-22.2 -15.38,-22.3 -15.82,-6.35 -28.89,8.76 -8.78,10.15 -38.84,4.54 -25.54,23.61 3.77,5.41 10.52,11.29 11.49,17.61 1.67,10.83 -3.91,20.18 3.26,27.03z"/>
   <path class="fil0" d="M325.18 55.66l1.82 -2.77c2.46,-5.39 -3.7,-0.26 1.03,-0.91 2.14,-0.29 1.8,-2.02 0.83,1.64l2.89 2.13 1.68 2.39c5.83,9.59 7.37,8.28 21.45,11.72 -9.59,16.41 -10.26,5.36 -10.03,31.61 -25.18,-4.96 -8.64,-4.91 -33.55,0.2 0.14,-16.65 -0.29,-21.19 -9.86,-30.06l6.83 -3.65c19.32,-6.51 7.41,-4.41 16.91,-12.29zm-27.05 62.42c12.03,4.74 18.1,-4.68 28.86,-5.58 9.42,-0.78 17.53,8.61 29.03,6.62 8.6,-11.16 -0.15,-20.89 4.79,-32.04 3.38,-7.63 15.31,-13.52 13.64,-22.96 -4.57,-12.33 -20.19,0.27 -34.72,-22.97 -14.41,-23.05 -17.67,-4.82 -28.62,7.77 -9.62,11.07 -38.84,5.33 -26.65,23.78 2.6,3.93 10.91,13.32 11.89,17.19 2.31,9.09 -1.03,20.34 1.78,28.19z"/>
   <path class="fil0" d="M392.4 421.74c-4.52,-2.88 -2.67,-1.47 -10.2,-2.09 2.8,-3 4.94,-6.63 8.15,-12.2 -2.27,1.8 -1.37,0.74 -3.57,3.56 -1.17,1.51 -1.41,2.34 -2.71,4.08 -2.26,3.02 -2.61,2.85 -5.21,6.41l13.53 0.23z"/>
   <path class="fil0" d="M41.69 421.73l13.59 -0.28c-2.82,-3.86 -3.51,-4.04 -5.9,-7.36 -3.36,-4.67 -1.13,-3.17 -5.6,-6.64 3.25,5.51 5.51,9.07 8.15,12.24 -0.83,0.06 -4.49,0.09 -5.07,0.17l-4.04 1.2c-0.21,-0.37 -0.76,0.43 -1.13,0.66z"/>
  </g>
 </g>
</svg>
