<?xml version="1.0" encoding="UTF-8"?>
<!DOCTYPE svg PUBLIC "-//W3C//DTD SVG 1.1//EN" "http://www.w3.org/Graphics/SVG/1.1/DTD/svg11.dtd">
<!-- Creator: CorelDRAW -->
<svg xmlns="http://www.w3.org/2000/svg" xml:space="preserve" width="169.784mm" height="173.783mm" version="1.1" style="shape-rendering:geometricPrecision; text-rendering:geometricPrecision; image-rendering:optimizeQuality; fill-rule:evenodd; clip-rule:evenodd"
viewBox="0 0 1039.87 1064.37"
 xmlns:xlink="http://www.w3.org/1999/xlink"
 xmlns:xodm="http://www.corel.com/coreldraw/odm/2003">
 <defs>
  <style type="text/css">
   <![CDATA[
    .fil0 {fill:#B3B3B3}
   ]]>
  </style>
 </defs>
 <g id="Camada_x0020_1">
  <metadata id="CorelCorpID_0Corel-Layer"/>
  <path class="fil0" d="M913.74 998.54c-35.04,-1.5 -72.79,-0.24 -108.13,-0.24 -36.19,0 -30.03,4.05 -41.64,-13.54 -32.13,-48.65 -75.59,-108.42 -109.93,-157.44 -55.11,-78.67 -120.56,-175.79 -176.26,-252.2 -44.38,-60.87 -88.8,-128.5 -133.33,-190.77 -14.57,-20.37 -29.5,-41.3 -43.67,-62.59 -53.51,-80.4 -125.49,-173.89 -175.99,-252l141.43 -0.15 323.9 464.6c2.5,3.54 321.25,457.41 323.62,464.32zm-508.47 -407c-7.85,13.21 -187.89,218.18 -227.57,265.61l-177.33 206.95 91.08 0.23c6.99,-9.15 15.06,-17.4 22.21,-25.84 64.48,-76.1 137.79,-156.81 198.96,-231.24 7.29,-8.87 14.9,-16.48 22.07,-25.51 28.87,-36.32 69.23,-79 99.89,-116.16l12.11 -13.37 265.71 385.9c5.51,8.13 11.16,17.9 18.12,25.78l309.34 0.46 -394.28 -574.64c-6.7,-9.5 -22.18,-30.12 -26.48,-39.56 6.91,-8.84 16.02,-18.06 23.53,-27.19l96.7 -111.91c8.12,-9.5 16.4,-19.11 24.5,-28.68l48.09 -56.33c16.39,-19.15 32,-35.95 48.52,-55.65l145.23 -170.34 -75.6 -0.03c-20.38,-0.22 -16.32,-0.37 -43.93,32.88l-188.43 220.1c-27.7,31.92 -84.54,94.88 -106.87,123.76 -3.98,5.15 -7.83,9.33 -12.32,13.93l-235.68 -341.73c-10.56,-16.07 -24.54,-33.12 -32.99,-48.91l-309.88 0.02 101.01 147.93c85.07,121.32 168.39,248.69 253.49,369.08l50.77 74.45z"/>
 </g>
</svg>
